<svg width="223" height="278" viewBox="0 0 223 278" fill="none" xmlns="http://www.w3.org/2000/svg">
<path d="M193.627 0.197121C193.193 0.433731 193.232 0.249702 192.719 4.79793C192.509 6.74341 192.312 8.34712 192.299 8.36027C192.286 8.36027 191.747 8.53115 191.089 8.74148C188.565 9.5039 186.75 10.6081 184.962 12.4484C182.372 15.0906 180.991 18.0745 180.071 22.9383C179.808 24.3579 179.795 24.8049 179.755 45.7583L179.703 67.1191L179.979 67.4741L180.255 67.829H183.989H187.723L187.986 67.4872C188.262 67.1323 188.262 67.0797 188.262 54.4078V41.6701H196.94H205.618V54.4078C205.618 67.0797 205.618 67.1323 205.894 67.4872L206.157 67.829H209.878C213.586 67.829 213.599 67.829 213.875 67.5266L214.164 67.2243V46.5207C214.164 33.6384 214.112 25.3833 214.033 24.6471C213.349 18.4689 211.101 13.9207 207.327 11.0156C205.841 9.87196 202.16 8.28139 200.963 8.28139C200.306 8.26825 200.319 8.21567 201.542 4.44301C202.199 2.44495 202.725 0.749222 202.725 0.670349C202.725 0.591476 202.607 0.407448 202.462 0.262848C202.212 0.013092 202.028 -5.34058e-05 198.097 -5.34058e-05C194.731 0.013092 193.916 0.0393753 193.627 0.197121ZM200.03 13.8549C201.765 14.4465 203.054 15.4455 203.974 16.9572C205.368 19.2445 205.618 21.3214 205.618 30.523V36.412H196.927H188.236L188.302 29.4714C188.381 20.8613 188.525 19.652 189.682 17.4304C190.55 15.7741 191.917 14.5516 193.587 13.947C194.784 13.5132 195.533 13.4212 197.334 13.4606C198.689 13.5 199.162 13.5658 200.03 13.8549Z" fill="#0D2601"/>
<path d="M21.4912 7.62419C19.2034 7.88709 16.9682 8.6758 15.2852 9.81943C14.2728 10.5161 12.6556 12.2119 12.0245 13.2503L11.5249 14.0785L11.1304 13.4475C9.8156 11.3706 7.94856 10.0166 5.12171 9.05701C3.70171 8.57064 2.99171 8.5575 2.63671 9.00443C2.49208 9.18847 2.16338 10.2006 1.88726 11.3048C1.2956 13.671 1.2956 13.6447 2.86023 14.4597C4.85875 15.4981 6.02893 17.1807 6.54171 19.7835C7.12023 22.636 7.12023 22.7148 7.17282 45.456C7.22541 66.9089 7.22541 67.3164 7.48838 67.5793C7.72504 67.8159 7.94856 67.829 11.4065 67.829C14.825 67.829 15.088 67.8159 15.3773 67.5793L15.6928 67.3295L15.7717 44.2729C15.8506 18.7844 15.7849 20.5196 16.6921 17.8117C17.5204 15.3404 18.9667 13.7104 20.9784 12.9874C21.9382 12.6456 24.3443 12.5142 25.5276 12.7508C28.2756 13.2766 30.3662 15.4587 31.2076 18.6793C31.8782 21.2031 31.8387 20.0201 31.8913 44.4306L31.9439 67.2244L32.22 67.5267C32.4962 67.829 32.5224 67.829 36.2697 67.829C39.938 67.829 40.0432 67.8159 40.293 67.553C40.5297 67.2769 40.5428 66.6591 40.6086 44.4438C40.6743 23.7664 40.7006 21.5055 40.911 20.4276C41.6604 16.3526 43.2908 13.947 45.9336 13.0006C47.0643 12.5931 49.5756 12.501 50.851 12.8165C53.2176 13.3949 54.9663 15.1827 55.913 18.0089C56.7282 20.4539 56.6887 19.7046 56.7808 38.7782C56.8728 57.6021 56.8465 57.1552 57.5828 59.8105C57.9641 61.1907 58.8582 63.031 59.5813 63.8986C61.0934 65.7521 63.6704 67.0798 66.9049 67.6976C68.43 67.9999 68.8639 67.9473 69.14 67.4347C69.311 67.1192 69.7974 64.0958 69.7974 63.3728C69.7974 62.7024 69.6134 62.5052 68.5221 62.0715C67.4045 61.6245 66.9443 61.2696 66.4052 60.4677C65.4191 58.9955 65.4323 59.2452 65.3271 40.2899C65.2482 25.541 65.2087 23.3064 65.0247 22.2022C64.5382 19.376 63.9991 17.6014 63.0261 15.5639C60.9487 11.2654 57.5171 8.64951 52.8363 7.83451C48.2608 7.03266 43.6063 7.87395 40.556 10.0429C39.0702 11.0945 37.4267 13.04 36.651 14.6306C36.48 14.9723 36.3223 15.2484 36.2828 15.2484C36.2302 15.2484 36.0067 14.8803 35.7569 14.4202C33.7715 10.779 30.8132 8.58379 26.8162 7.83451C25.5013 7.58475 22.806 7.4796 21.4912 7.62419Z" fill="#0D2601"/>
<path d="M95.9623 7.96591C95.7125 8.00535 95.0025 8.12365 94.3976 8.22882C86.89 9.59591 82.2619 15.3272 81.2363 24.5157C81.1575 25.2518 81.1049 33.5333 81.1049 46.4944C81.1049 67.1323 81.1049 67.3032 81.3678 67.5661C81.6176 67.8158 81.8017 67.829 85.3517 67.829C88.9806 67.829 89.0858 67.8158 89.3356 67.5529C89.5723 67.29 89.5854 66.8562 89.6249 54.4735L89.6512 41.6701H98.3289H107.007V54.4604C107.007 67.1586 107.007 67.2506 107.27 67.5398C107.533 67.829 107.612 67.829 111.28 67.829H115.014L115.277 67.4872L115.553 67.1323V46.7441C115.553 34.5717 115.5 25.8302 115.422 25.0415C114.882 19.5205 113.16 15.3403 110.162 12.3433C108.019 10.1874 105.692 8.97809 102.379 8.26825C101.182 8.00535 97.1325 7.82132 95.9623 7.96591ZM100.38 13.6052C103.194 14.1441 105.232 15.9976 106.205 18.8764C106.77 20.5853 106.888 22.2547 106.967 29.5371L107.033 36.412H98.3289H89.6249L89.6906 29.2742C89.73 23.372 89.7826 21.9129 89.9667 20.7693C90.6241 16.7995 92.7147 14.3282 96.028 13.6315C97.2376 13.3686 99.1047 13.3554 100.38 13.6052Z" fill="#0D2601"/>
<path d="M128.964 9.10955C128.793 9.20156 128.57 9.42503 128.478 9.59592C128.346 9.85882 128.32 15.7741 128.346 38.6204L128.372 67.3295L128.688 67.5792C128.977 67.8158 129.24 67.829 132.632 67.829C135.578 67.829 136.327 67.7895 136.537 67.6449C136.787 67.4609 136.787 67.1323 136.853 54.3289L136.919 41.21H147.306H157.693L157.759 54.3289C157.824 67.1323 157.824 67.4609 158.074 67.6449C158.284 67.7895 159.047 67.829 162.032 67.829C165.634 67.829 165.739 67.8158 165.989 67.5529C166.239 67.2769 166.239 66.5933 166.279 38.5153L166.305 9.74051L165.989 9.37245L165.674 9.00438H161.979C158.613 9.00438 158.271 9.03067 158.061 9.241C157.837 9.46447 157.824 10.2137 157.759 22.4519L157.693 35.4262H147.306H136.919L136.853 22.4519C136.787 10.2269 136.774 9.46447 136.551 9.241C136.34 9.03067 135.972 9.00438 132.803 8.96495C130.147 8.93866 129.214 8.9781 128.964 9.10955Z" fill="#0D2601"/>
<path d="M79.7901 79.4231C63.6179 79.9883 54.309 83.5507 49.2601 91.0829C47.0249 94.4349 45.6838 98.4047 44.9869 103.729C44.7634 105.372 44.7503 107.896 44.7503 141.508C44.7503 181.219 44.6977 178.603 45.5523 183.572C48.2871 199.412 57.5829 213.491 71.1386 222.324C73.5316 223.888 74.728 224.572 77.3445 225.847C82.1962 228.226 87.6264 230.001 92.8067 230.882C97.3034 231.644 97.5006 231.657 109.702 231.723C123.14 231.776 125.256 231.684 130.147 230.75C150.435 226.912 167.067 212.728 174.128 193.273C176.1 187.871 177.205 182.139 177.481 175.987C177.652 172.11 177.652 110.774 177.481 107.081C177.402 105.569 177.231 103.518 177.086 102.519C175.548 91.9899 170.328 85.4962 160.809 82.2362C156.602 80.7902 151.921 80.0015 144.873 79.5151C142.441 79.3442 84.2604 79.2654 79.7901 79.4231ZM145.662 83.7216C157.259 84.5366 163.478 86.6398 167.777 91.2143C170.486 94.0931 172.208 98.0498 172.945 103.058C173.392 106.174 173.418 108.96 173.379 143.348C173.326 180.549 173.379 178.196 172.55 182.954C170.539 194.522 164.438 205.63 155.8 213.425C148.844 219.695 140.784 223.98 131.922 226.097C128.188 226.991 124.822 227.411 120.457 227.503L117.131 227.582V223.915C117.144 210.743 117.407 193.273 117.722 184.558L118.051 175.159L118.406 174.436C118.919 173.411 120.773 171.597 123.928 169.073C128.07 165.747 129.477 164.012 129.885 161.778C130.161 160.345 129.437 158.307 127.978 156.349C127.597 155.836 126.479 154.574 125.493 153.549C122.508 150.42 121.286 148.554 121.286 147.16C121.286 145.07 123.613 142.822 128.412 140.272C129.385 139.759 130.608 139.036 131.147 138.668C132.435 137.774 133.96 136.171 134.434 135.185C134.762 134.501 134.815 134.265 134.815 133.226C134.815 132.24 134.762 131.938 134.486 131.386C133.658 129.677 131.41 128.323 128.188 127.587L127.334 127.39L125.69 127.929C122.732 128.875 120.352 129.927 117.985 131.333C117.354 131.701 116.828 131.977 116.815 131.951C116.789 131.938 116.697 131.123 116.618 130.15C116.145 124.813 114.646 121.304 112.003 119.319C111.556 118.977 111.122 118.701 111.043 118.701C110.741 118.701 109.163 120.002 108.124 121.093C107.546 121.685 106.888 122.539 106.652 122.973C105.889 124.432 105.429 126.943 105.429 129.703C105.429 130.518 105.39 131.189 105.35 131.189C105.311 131.189 104.732 130.9 104.075 130.545C102.392 129.638 100.314 128.77 98.0266 128.021L96.0938 127.377L94.8053 127.692C91.5971 128.507 89.7301 129.716 88.9017 131.544C88.6125 132.188 88.573 132.398 88.6256 133.397C88.6651 134.383 88.744 134.659 89.1384 135.395C89.6512 136.381 90.9134 137.709 92.1493 138.576C92.6227 138.905 93.9506 139.694 95.1077 140.325C96.2647 140.956 97.711 141.797 98.329 142.204C99.7227 143.138 101.314 144.715 101.734 145.583C102.773 147.699 101.918 149.408 97.5401 153.982C95.8703 155.744 95.0814 156.743 94.3845 158.031C93.4642 159.753 93.2669 161.028 93.7271 162.501C94.3188 164.42 95.8703 166.168 99.7753 169.283C102.734 171.663 104.417 173.28 104.956 174.305L105.35 175.028L105.652 182.784C105.955 190.828 106.165 202.593 106.27 218.394L106.323 227.582L102.365 227.503C98.2106 227.438 96.2516 227.254 93.0697 226.675C77.4366 223.81 63.7493 214.043 55.8342 200.069C51.916 193.155 49.6151 185.505 49.0234 177.394C48.8393 174.844 48.8393 108.053 49.0234 105.74C50.0621 92.818 56.0314 86.5872 69.403 84.4708C72.0327 84.0502 76.8975 83.6427 80.2503 83.5638C80.9077 83.5507 95.3969 83.5375 112.463 83.5507C134.605 83.5638 144.111 83.6033 145.662 83.7216Z" fill="#0D2601"/>
<path d="M110.004 89.0848C107.611 90.8725 106.336 92.726 105.784 95.2367C105.521 96.4461 105.495 96.9193 105.495 100.955C105.495 104.543 105.534 105.635 105.731 106.87C106.244 110.13 107.046 112.286 108.216 113.522C109.084 114.442 109.926 114.81 111.214 114.81C112.082 114.823 112.332 114.757 113.094 114.389C114.869 113.508 115.816 111.708 116.5 107.922C116.776 106.344 116.736 99.6929 116.434 97.9052C115.855 94.448 114.777 91.8584 113.239 90.2021C112.424 89.3083 111.332 88.467 111.004 88.467C110.925 88.467 110.465 88.743 110.004 89.0848Z" fill="#0D2601"/>
<path d="M82.801 95.1315C82.5775 95.631 82.2093 96.5511 81.9858 97.2084C81.6045 98.2994 81.5651 98.5229 81.5651 100.1C81.5651 101.704 81.6045 101.888 82.0252 103.124C82.5512 104.675 84.6417 108.868 85.8382 110.787C87.8893 114.06 90.0062 116.4 91.7549 117.307C92.6095 117.767 92.8725 117.833 93.806 117.886C94.7527 117.938 94.9762 117.899 95.6073 117.61C98.2764 116.387 98.8812 113.666 97.448 109.315C96.909 107.711 95.3312 104.412 94.1873 102.532C91.9784 98.8778 89.5986 96.4197 87.0873 95.2103C85.9302 94.6582 84.4971 94.2639 83.6425 94.2507C83.2349 94.2507 83.1823 94.3033 82.801 95.1315Z" fill="#0D2601"/>
<path d="M136.985 94.5269C133.211 95.4997 129.885 98.878 126.729 104.951C123.587 110.972 123.205 114.797 125.546 116.9C127.071 118.28 129.214 118.267 131.239 116.874C133.711 115.178 137.445 109.775 139.548 104.872C141.152 101.113 141.166 99.1014 139.588 95.4602L139.062 94.2509L138.51 94.264C138.22 94.264 137.524 94.3823 136.985 94.5269Z" fill="#0D2601"/>
<path d="M65.853 111.931C65.4586 112.023 64.8538 112.233 64.5119 112.378C63.7888 112.68 63.7888 112.641 64.0123 114.757C64.2884 117.373 64.9458 118.951 66.4184 120.502C67.6938 121.843 69.0743 122.947 71.5067 124.55C76.1086 127.587 79.1984 128.928 81.8938 129.046C83.6162 129.125 84.5103 128.849 85.4043 127.942C87.061 126.299 87.1004 124.051 85.5358 121.698C83.0245 117.912 75.1225 112.851 70.3234 111.944C69.0217 111.694 66.8523 111.694 65.853 111.931Z" fill="#0D2601"/>
<path d="M151.855 111.931C149.304 112.509 146.28 113.89 143.348 115.822C139.325 118.477 136.84 120.949 135.906 123.196C135.472 124.274 135.499 125.773 135.985 126.719C136.445 127.64 137.011 128.231 137.839 128.665C138.457 128.993 138.602 129.02 140.14 129.02C141.626 129.007 141.902 128.967 143.059 128.586C143.756 128.349 145.202 127.718 146.28 127.179C151.303 124.656 156.102 120.922 157.206 118.675C157.824 117.413 158.153 115.98 158.245 114.218C158.337 112.47 158.416 112.615 156.996 112.102C155.997 111.747 153.091 111.655 151.855 111.931Z" fill="#0D2601"/>
<path d="M70.0603 135.619C66.3789 135.974 63.4468 136.789 61.3563 138.037C60.265 138.681 58.8318 140.062 58.2927 140.956L57.9377 141.587L58.3059 142.139C58.5163 142.441 59.2789 143.282 60.002 144.018C61.5666 145.583 62.579 146.161 64.5381 146.582C66.1816 146.924 70.1524 147.055 73.0055 146.845C78.3042 146.45 81.6307 145.438 83.2348 143.703C84.1289 142.73 84.4576 141.823 84.3524 140.574C84.142 137.893 81.8937 136.315 77.4364 135.711C76.1742 135.553 71.4014 135.487 70.0603 135.619Z" fill="#0D2601"/>
<path d="M144.716 135.724C141.074 136.223 138.746 137.551 138.102 139.483C137.642 140.85 137.971 142.559 138.891 143.65C140.061 145.044 143.046 146.135 147.082 146.661C149.409 146.95 155.602 146.989 157.101 146.713C159.902 146.201 161.479 145.215 163.478 142.717L164.319 141.665L163.978 141.021C163.78 140.666 163.149 139.917 162.558 139.352C160.414 137.301 157.246 136.131 152.512 135.658C150.672 135.474 146.28 135.514 144.716 135.724Z" fill="#0D2601"/>
<path d="M136.248 151.564C134.907 151.84 133.855 152.668 133.224 153.93C132.909 154.535 132.856 154.824 132.856 155.639C132.856 157.374 133.697 158.912 135.801 161.041C138.759 164.038 144.374 167.772 147.634 168.915C148.673 169.283 150.685 169.415 151.881 169.191C152.328 169.099 153.328 168.823 154.117 168.56L155.523 168.087V167.154C155.523 165.879 155.221 164.735 154.55 163.329C153.814 161.843 152.907 160.634 151.382 159.109C148.384 156.151 143.072 152.826 139.851 151.905C138.562 151.537 137.05 151.393 136.248 151.564Z" fill="#0D2601"/>
<path d="M82.354 153.588C78.6199 154.456 72.4271 158.268 69.2847 161.62C66.9575 164.117 65.7216 166.694 65.7216 169.06V170.059L66.9443 170.466C69.1795 171.242 71.2175 171.479 72.6769 171.137C74.3336 170.756 76.9106 169.454 79.7243 167.574C84.2079 164.577 87.1004 161.712 88.0866 159.319C88.4942 158.333 88.4942 156.874 88.1129 156.007C87.7053 155.126 86.7454 154.14 85.9303 153.798C85.0756 153.43 83.4584 153.338 82.354 153.588Z" fill="#0D2601"/>
<path d="M94.963 175.593C92.833 176.329 91.0974 178.827 91.0974 181.153C91.0974 183.493 92.7015 184.821 95.4889 184.821C96.7248 184.821 97.4217 184.558 97.9739 183.914C99.315 182.323 98.5787 178.354 96.5407 176.145C96.1332 175.711 95.765 175.356 95.7124 175.356C95.673 175.37 95.3311 175.475 94.963 175.593Z" fill="#0D2601"/>
<path d="M126.216 176.08C124.914 177.525 124.034 179.852 124.126 181.732C124.178 183.23 124.573 183.967 125.546 184.466C126.229 184.821 126.348 184.834 127.584 184.782C129.069 184.729 129.911 184.44 130.647 183.73C131.226 183.178 131.449 182.731 131.607 181.824C131.949 179.668 130.45 176.881 128.399 175.895C127.031 175.225 127.005 175.238 126.216 176.08Z" fill="#0D2601"/>
<path d="M16.6527 86.482C15.0091 87.0078 13.3919 88.5063 12.4847 90.3204C11.8404 91.6086 11.6301 92.5682 11.7221 93.9222C11.8536 96.17 13.1027 97.4713 15.6008 97.9972C17.573 98.4178 19.1245 98.1286 20.0975 97.1427C20.8864 96.3672 21.1493 95.539 21.1493 93.9222C21.1493 91.8321 20.3341 89.4791 18.9799 87.7045C18.454 86.9947 17.6256 86.2191 17.4547 86.2454C17.4284 86.2454 17.0603 86.3505 16.6527 86.482Z" fill="#0D2601"/>
<path d="M200.135 87.0868C199.491 87.7572 199.136 88.2961 198.597 89.4266C197.703 91.2669 197.427 92.358 197.427 93.988C197.427 95.4997 197.742 96.4593 198.478 97.1691C199.123 97.7869 199.78 98.063 200.884 98.155C202.62 98.2996 204.54 97.7475 205.592 96.8142C206.551 95.9466 206.854 95.171 206.867 93.5279C206.867 91.911 206.551 90.8594 205.605 89.4529C204.763 88.2041 203.817 87.3497 202.659 86.8107C201.082 86.0877 201.095 86.0877 200.135 87.0868Z" fill="#0D2601"/>
<path d="M212.678 118.32C212.192 118.385 211.337 118.609 210.772 118.832C208.063 119.871 206.223 121.764 202.383 127.377C200.832 129.651 199.254 131.307 197.992 131.977C197.19 132.411 197.058 132.437 195.888 132.437C194.494 132.437 193.929 132.24 193.193 131.517C192.141 130.453 191.944 129.375 191.944 124.511C191.944 119.923 192.023 120.147 190.445 120.147C189.735 120.147 189.406 120.199 189.262 120.357C189.077 120.528 189.051 121.119 189.051 124.853C189.051 127.219 189.117 129.664 189.183 130.269C189.814 135.435 192.378 138.011 196.874 138.024C200.148 138.024 202.397 136.328 205.96 131.149C208.787 127.035 210.299 125.379 211.942 124.564C214.953 123.091 217.254 123.933 218.056 126.785C218.24 127.442 218.293 128.428 218.358 132.503L218.437 137.433L219.936 137.472C220.922 137.498 221.488 137.459 221.606 137.354C221.882 137.13 221.869 127.219 221.593 125.602C220.725 120.673 217.136 117.741 212.678 118.32Z" fill="#0D2601"/>
<path d="M0.598763 118.937C0.40154 119.161 0.375244 119.726 0.375244 124.314C0.375244 127.14 0.440985 130.058 0.506726 130.807C1.0195 135.96 3.33358 139.128 7.14654 139.93C8.36932 140.18 10.7491 140.18 11.7484 139.93C14.378 139.234 16.2319 137.222 17.5204 133.621C17.5993 133.41 17.6782 133.489 17.928 134.12C18.6775 135.921 20.0186 137.512 21.3991 138.221C23.3714 139.207 26.1588 139.168 28.3282 138.09C30.0243 137.262 31.5232 135.356 32.3252 133.029C33.0484 130.886 33.1404 130.058 33.2062 124.406C33.2719 119.608 33.2588 119.121 33.0484 118.924C32.8512 118.714 31.6152 118.701 16.8236 118.701C1.47969 118.701 0.795985 118.714 0.598763 118.937ZM15.7323 127.469C15.6797 130.453 15.6534 130.807 15.3773 131.57C14.8119 133.174 13.9704 134.041 12.4715 134.554C11.3671 134.935 8.1195 134.896 7.01506 134.501C5.37154 133.897 4.25395 132.792 3.72802 131.254C3.41247 130.308 3.26784 128.796 3.26784 126.351V124.222H9.52636H15.7849L15.7323 127.469ZM30.2215 126.483C30.2215 129.743 29.906 130.86 28.6569 132.109C27.7365 133.029 26.8688 133.331 24.8702 133.397C23.4897 133.437 23.1215 133.41 22.3195 133.16C21.5175 132.924 21.2545 132.766 20.6234 132.135C19.4138 130.913 19.0851 129.795 18.9536 126.417L18.8747 124.222H24.5547H30.2215V126.483Z" fill="#0D2601"/>
<path d="M196.085 149.145C192.062 150.013 189.261 153.01 188.302 157.479C187.96 159.056 187.96 163 188.302 164.577C189.064 168.113 191.036 170.821 193.811 172.136C195.809 173.082 195.494 173.056 205.158 173.056C214.887 173.056 214.48 173.096 216.596 172.07C220.672 170.112 222.908 164.827 222.171 158.859C221.659 154.732 219.621 151.472 216.623 149.999C214.532 148.974 214.979 149.014 205.486 148.987C198.321 148.961 196.861 148.974 196.085 149.145ZM214.756 154.508C215.979 154.876 217.004 155.481 217.767 156.309C219.042 157.689 219.476 159.043 219.397 161.409C219.358 162.54 219.266 163.131 219.055 163.723C218.398 165.498 217.096 166.733 215.15 167.43L214.098 167.798H205.158H196.217L195.139 167.43C192.443 166.523 190.984 164.512 190.8 161.488C190.616 158.333 192.049 155.796 194.573 154.837C196.138 154.232 196.638 154.206 205.552 154.245C213.178 154.272 214.046 154.298 214.756 154.508Z" fill="#0D2601"/>
<path d="M0.664492 150.933C0.559306 151.038 0.506714 151.722 0.506714 153.167V155.244L0.848566 155.376C1.05894 155.455 7.01505 155.507 16.9156 155.507C30.9578 155.507 32.6934 155.481 32.9563 155.297C33.2325 155.113 33.2456 155.008 33.2456 153.141C33.2456 151.537 33.2062 151.156 33.0352 150.985C32.8512 150.801 31.2076 150.775 16.8236 150.775C4.55634 150.775 0.782825 150.815 0.664492 150.933Z" fill="#0D2601"/>
<path d="M8.72428 167.036C5.55558 167.469 2.86021 169.441 1.38761 172.399C0.296318 174.581 -0.0981269 176.75 0.0202064 179.865C0.0990953 182.231 0.467243 183.848 1.28243 185.531C2.70243 188.462 5.0428 190.316 8.11947 190.933C8.9741 191.117 10.3547 191.131 17.5993 191.104L26.0798 191.065L27.0002 190.749C28.7226 190.184 29.6693 189.593 30.9447 188.318C31.9834 187.279 32.2332 186.937 32.8248 185.741C33.9293 183.493 34.4026 180.969 34.258 178.169C33.9293 172.018 30.8132 167.982 25.6985 167.088C24.9491 166.944 9.64465 166.904 8.72428 167.036ZM25.9615 172.399C28.6832 172.872 30.5897 174.528 31.2208 176.947C31.4969 177.972 31.5232 180.01 31.2865 181.009C30.8658 182.731 29.6561 184.308 28.2098 185.018C26.5795 185.807 26.8293 185.794 17.5993 185.833C8.22465 185.886 7.86965 185.859 6.18669 185.071C3.47817 183.769 2.18965 180.444 3.03113 176.934C3.6228 174.476 5.67391 172.741 8.46132 172.346C8.89521 172.28 12.7476 172.228 17.0208 172.215C23.4765 172.202 24.9885 172.241 25.9615 172.399Z" fill="#0D2601"/>
<path d="M189.327 183.362C189.104 183.756 189.077 192.603 189.288 193.562C190.3 198.19 193.022 201.226 197.137 202.304C198.426 202.633 201.91 202.804 208.09 202.843C212.652 202.856 213.257 202.79 215.137 202.067C217.74 201.055 219.91 198.807 220.935 196.073C221.724 193.983 221.908 192.327 221.922 187.424C221.935 184.282 221.922 183.953 221.711 183.809C221.382 183.559 219.239 183.572 218.99 183.822C218.845 183.967 218.792 184.782 218.713 187.608C218.595 192.524 218.332 193.602 216.86 195.179C215.965 196.139 215.045 196.678 213.572 197.125C212.534 197.427 212.087 197.48 210.022 197.532C208.721 197.572 205.762 197.532 203.448 197.453C198.741 197.309 197.834 197.164 196.164 196.323C194.994 195.731 193.679 194.522 193.153 193.523C192.43 192.156 192.325 191.433 192.338 187.24C192.351 184.532 192.312 183.428 192.194 183.296C192.088 183.165 191.707 183.112 190.747 183.112C189.617 183.112 189.432 183.138 189.327 183.362Z" fill="#0D2601"/>
<path d="M26.54 201.003C25.4487 201.121 23.6606 201.634 22.6613 202.133C21.2019 202.869 12.6161 207.641 11.9324 208.101C7.39633 211.151 5.96318 216.501 8.2641 221.89C8.48762 222.429 9.51318 224.388 10.5387 226.228C11.9982 228.857 12.4715 229.593 12.695 229.62C12.8528 229.646 13.4313 229.396 14.0098 229.081C14.8119 228.621 15.0485 228.423 15.0748 228.174C15.1011 227.95 14.6804 227.07 13.8126 225.492C13.0895 224.204 12.3006 222.718 12.0376 222.206C10.4993 219.143 10.8017 216.58 13.0106 214.214C13.5102 213.688 14.3385 212.965 14.8645 212.597C16.1398 211.716 24.1076 207.325 25.3567 206.813C28.6963 205.446 31.7073 205.814 33.7847 207.864C34.6261 208.693 34.9943 209.271 36.7298 212.426C37.4924 213.832 38.2419 215.094 38.3865 215.213C38.6495 215.436 38.6889 215.423 39.3332 215.094C40.5823 214.463 41.003 214.148 41.003 213.832C41.003 213.451 37.361 206.839 36.5195 205.709C34.0082 202.317 30.3924 200.608 26.54 201.003Z" fill="#0D2601"/>
<path d="M184.213 208.311C183.923 208.43 182.319 211.769 182.398 212.084C182.451 212.321 185.317 213.793 196.822 219.498C206.604 224.362 211.258 226.609 211.429 226.544C211.771 226.439 213.415 223.139 213.323 222.745C213.27 222.521 210.43 221.062 198.912 215.344C191.023 211.427 184.528 208.219 184.476 208.233C184.423 208.233 184.305 208.272 184.213 208.311Z" fill="#0D2601"/>
<path d="M168.869 226.728C162.794 232.591 160.322 235.062 160.322 235.259C160.322 235.417 160.664 235.929 161.085 236.403C161.677 237.073 161.94 237.27 162.203 237.27C162.492 237.27 163.228 236.613 165.897 234.05C167.738 232.275 169.25 230.842 169.263 230.855C169.605 231.289 189.419 251.704 189.577 251.782C189.906 251.94 190.024 251.848 191.733 250.179C192.812 249.127 193.259 248.588 193.259 248.378C193.259 248.154 190.603 245.328 183.2 237.665C177.665 231.946 173.142 227.214 173.142 227.162C173.142 227.109 174.628 225.624 176.429 223.875C178.243 222.114 179.716 220.589 179.716 220.471C179.716 220.339 179.348 219.853 178.914 219.353C178.296 218.683 178.033 218.473 177.757 218.473C177.468 218.473 175.89 219.945 168.869 226.728Z" fill="#0D2601"/>
<path d="M44.6187 222.758C42.3046 223.139 40.0694 224.388 38.61 226.123C38.2944 226.504 36.1118 229.317 33.7452 232.393C28.407 239.334 27.9205 240.202 27.7628 242.988C27.5787 246.393 29.1696 249.653 32.3252 252.361C37.7554 256.988 43.7641 257.448 47.8926 253.531C48.3791 253.071 50.7194 250.166 53.2965 246.8C58.2139 240.399 58.9502 239.255 59.3446 237.336C59.9494 234.431 59.0816 231.237 56.9648 228.621C54.9268 226.084 51.5215 223.796 48.6815 223.06C47.6691 222.797 45.4076 222.64 44.6187 222.758ZM50.0752 226.794C52.3366 227.595 54.2431 229.436 54.94 231.499C55.4791 233.09 55.1372 235.193 54.0328 236.942C53.3096 238.098 44.6187 249.403 43.8167 250.231C42.9883 251.086 41.9365 251.769 40.8583 252.137C40.1615 252.374 39.8065 252.4 38.8072 252.361C37.7685 252.308 37.4661 252.229 36.6378 251.835C33.0483 250.113 31.3916 247.076 32.3252 243.922C32.4961 243.37 32.8774 242.515 33.1798 242.029C34.0476 240.622 42.8174 229.265 43.672 228.437C44.4609 227.687 45.6311 226.978 46.5778 226.675C47.4718 226.399 49.1022 226.452 50.0752 226.794Z" fill="#0D2601"/>
<path d="M148.621 234.681C147.634 235.246 147.161 235.588 147.135 235.759C147.122 235.903 147.398 236.758 147.766 237.651C148.134 238.545 148.397 239.321 148.331 239.387C148.279 239.439 147.871 239.728 147.437 240.018C146.438 240.701 144.979 242.121 144.347 243.054C142.428 245.867 141.941 249.245 142.98 252.519C143.269 253.452 146.688 261.024 147.989 263.626C150.632 268.897 156.049 271.066 161.782 269.147C162.715 268.832 169.5 265.756 169.829 265.506C169.907 265.427 169.986 265.243 169.973 265.085C169.96 264.704 169.053 262.89 168.79 262.732C168.632 262.627 167.725 262.995 165.108 264.192C163.202 265.072 161.256 265.874 160.783 265.979C157.903 266.663 155.51 265.506 153.472 262.417C152.644 261.168 150.843 257.409 151.014 257.251C151.066 257.198 153.538 256.042 156.483 254.674C159.678 253.202 161.913 252.098 161.992 251.953C162.15 251.651 161.256 249.666 160.901 249.561C160.756 249.508 158.679 250.402 155.366 251.94C152.447 253.281 149.975 254.438 149.857 254.504C149.672 254.596 149.554 254.438 149.173 253.636C147.766 250.691 147.293 248.891 147.398 246.906C147.464 245.828 147.529 245.552 147.937 244.724C148.463 243.659 149.502 242.568 150.58 241.937C150.935 241.726 152.591 240.925 154.261 240.149C155.918 239.387 157.364 238.637 157.456 238.506C157.588 238.296 157.535 238.085 157.141 237.205C156.588 235.969 156.483 235.824 156.181 235.824C156.049 235.824 154.932 236.297 153.696 236.876C152.447 237.454 151.395 237.927 151.342 237.927C151.277 237.927 151.066 237.02 150.856 235.929C150.567 234.457 150.409 233.905 150.264 233.879C150.159 233.866 149.423 234.221 148.621 234.681Z" fill="#0D2601"/>
<path d="M71.6382 240.491C69.6922 240.938 68.1539 242.108 67.2467 243.843C66.1422 245.933 65.8924 247.51 66.3658 249.351C66.8785 251.401 67.9567 253.268 70.3891 256.344C74.1495 261.116 75.2539 263.429 74.9121 265.9C74.5702 268.319 72.953 269.436 70.3102 269.081C69.758 269.003 67.4045 268.359 65.0772 267.636C62.75 266.913 60.7646 266.36 60.6595 266.4C60.4228 266.492 59.6339 269.016 59.7391 269.344C59.8311 269.62 60.2256 269.765 65.4585 271.382C70.0078 272.802 70.6258 272.933 72.4271 272.946C75.0435 272.946 76.9369 272.236 78.5278 270.619C80.1056 269.029 80.8024 267.083 80.6709 264.678C80.5132 261.799 79.3035 259.446 75.3722 254.464C72.7032 251.073 71.9011 249.482 71.9011 247.589C71.9011 246.393 72.1772 245.591 72.8478 244.829C73.663 243.909 74.2415 243.659 75.5826 243.659C76.8448 243.659 77.4496 243.803 81.565 245.092C83.0771 245.565 84.4971 245.946 84.7074 245.92C85.0624 245.88 85.115 245.801 85.4043 244.973C85.733 243.987 85.7593 243.738 85.5884 243.475C85.47 243.278 78.4883 241.069 76.7659 240.675C75.2408 240.333 72.7426 240.241 71.6382 240.491Z" fill="#0D2601"/>
<path d="M118.84 244.171C117.762 244.408 116.723 244.829 115.882 245.354C115.093 245.854 113.699 247.313 113.462 247.891C113.357 248.128 113.252 248.312 113.199 248.312C113.147 248.312 113.002 248.089 112.858 247.826C112.463 247.076 110.977 245.67 110.097 245.197C108.69 244.461 107.454 244.185 105.429 244.185C102.168 244.185 99.9856 245.092 98.4604 247.063L97.9213 247.773L97.1062 246.945C96.1858 246.012 95.0945 245.42 93.6087 245.065C92.6884 244.842 92.6621 244.855 92.4254 245.105C92.1625 245.381 91.5576 247.445 91.6891 247.655C91.7286 247.721 92.1756 247.997 92.6884 248.26C94.4502 249.193 95.0025 250.442 95.226 254.03C95.2786 254.674 95.3706 260.208 95.4495 266.321L95.581 277.429L95.8702 277.665C96.1332 277.889 96.3304 277.902 98.3289 277.823C99.8804 277.757 100.551 277.678 100.682 277.547C100.853 277.389 100.853 275.707 100.722 264.914C100.604 256.199 100.604 252.19 100.696 251.598C101.103 249.061 102.208 247.576 104.022 247.116C105.021 246.866 106.941 247.011 107.717 247.392C109.084 248.049 110.018 249.469 110.359 251.428C110.504 252.203 110.583 255.503 110.701 264.744C110.82 274.826 110.885 277.087 111.043 277.337C111.214 277.613 111.28 277.626 113.489 277.626C115.211 277.626 115.829 277.586 116.013 277.442C116.25 277.271 116.263 276.955 116.105 264.796C116 256.449 115.987 252.032 116.079 251.428C116.552 248.181 118.393 246.564 121.404 246.761C124.034 246.932 125.572 248.785 125.874 252.124C125.914 252.597 126.006 256.975 126.072 261.852C126.19 269.699 126.229 270.856 126.453 271.908C127.11 275.089 128.938 276.706 132.514 277.245C133.855 277.455 133.908 277.402 134.158 275.851C134.381 274.497 134.315 274.353 133.434 274.09C132.83 273.906 132.185 273.406 131.922 272.894C131.567 272.223 131.475 270.33 131.397 262.903C131.357 258.815 131.265 254.74 131.199 253.833C130.831 248.799 128.741 245.657 124.954 244.408C124.034 244.106 123.639 244.066 121.798 244.027C120.313 243.987 119.445 244.04 118.84 244.171Z" fill="#0D2601"/>
</svg>
